<svg width="720" height="720" viewBox="0 0 720 720" xmlns="http://www.w3.org/2000/svg"><path d="M609.5037709083629,9.999999999999917C610.5037709083629,151.96054551280463,630.233330118455,369.06144547264705,551.0799991053102,437.881636538414C471.9266680921654,506.70182760418095,264.62670171724596,395.8068945585879,134.58378482949414,422.9211463946016C4.540867941742306,450.0353982306153,-150.9608285375242,631.576739162792,-229.17750222120077,600.5671475544962C-307.39417590487733,569.5575559462003,-275.8637544710174,371.93538746138023,-334.71625727256526,236.86359674482648C-393.56876007411313,101.79180602827273,-593.5593580544405,-75.29180602827259,-582.2925190304882,-209.86359674482634C-571.0256800065358,-344.43538746138006,-384.98818175723716,-508.3867188929428,-267.1152231288514,-570.5671475544959C-149.2422645004657,-632.7475762160491,-10.42063763253394,-609.0604205501589,124.9452327398263,-582.9461687141453C260.3111031121865,-556.8319168781317,464.3202427438872,-512.7059979907717,545.07999910531,-413.8816365384142C625.8397554667328,-315.0572750860567,608.5037709083629,-131.9605455128048,609.5037709083629,9.999999999999917C610.5037709083629,151.96054551280463,630.233330118455,369.06144547264705,551.0799991053102,437.881636538414" fill="#ffcfb8"/></svg>