<svg width="1920" height="240" viewBox="0 0 1920 240" xmlns="http://www.w3.org/2000/svg"><path d="M1316.379425372791,157.99999999999983C1343.2274848869715,234.4563342806959,1461.330855429264,320.2767745432916,1480.7114777491702,403.5472340761651C1500.0921000690764,486.81769360903866,1482.5173270499095,593.3867714600639,1432.6631592922292,657.6227571972411C1382.808991534549,721.8587429344183,1262.0751192175112,811.7013643090614,1181.5864712030896,788.9631484992286C1101.097823188668,766.2249326893958,1042.5790164062141,539.8715305549742,949.7312712056992,521.1934623382442C856.8835260051843,502.51539412151425,708.9696237347983,674.9678087056529,624.5000000000002,676.8947391988488C540.0303762652021,678.8216696920447,496.20513387946374,607.8172556991566,442.91352879691055,532.7550452974194C389.62192371435737,457.69283489568227,286.51341932322316,314.57907963489833,304.7503695046812,226.52147678842582C322.98731968613924,138.46387394195332,524.974703336954,58.19882730460345,552.3352298856589,4.409428218584495C579.6957564343638,-49.37997086743446,453.38606711118695,-65.22381599391495,468.91352879691044,-96.21491772768792C484.44099048263394,-127.20601946146088,561.724144214094,-160.18125373312523,645.4999999999998,-181.53718218405334C729.2758557859055,-202.89311063498144,891.3323003494696,-173.27949404739402,971.5686635123448,-224.3504884332566C1051.80502667522,-275.42148281911915,1050.4024296806035,-465.7511037052313,1126.9181789772508,-487.96314849922874C1203.4339282738981,-510.1751932932262,1398.5456690110896,-429.75148667911094,1430.663159292229,-357.62275719724136C1462.7806495733685,-285.4940277153718,1338.6704096506598,-141.12789780755145,1319.6231206640869,-55.19077160801126C1300.5758316775139,30.74635459152894,1289.5313658586106,81.54366571930376,1316.379425372791,157.99999999999983C1343.2274848869715,234.4563342806959,1461.330855429264,320.2767745432916,1480.7114777491702,403.5472340761651" fill="#ffcfb8"/></svg>