<svg width="1080" height="1080" viewBox="0 0 1080 1080" xmlns="http://www.w3.org/2000/svg"><path d="M1789.9434914695025,36.9999999999999C1789.9434914695025,174.77964640645155,1826.003660896863,324.6235413491273,1741.7627457812105,441.83893921935487C1657.521830665558,559.0543370895824,1421.7223185407997,686.2168125543634,1284.4980007755878,740.2923872213652C1147.2736830103759,794.367961888367,1050.3007253329006,822.8687417793685,918.4168391899386,766.2923872213653C786.5329530469766,709.7160326633621,586.4308237828052,523.0496577435736,493.1946839178154,400.834259873346C399.95854405282563,278.61886200311847,357.326238283171,139.4094146729716,359,33.00000000000009C360.673761716829,-73.4094146729714,419.36437851565773,-116.40683029425546,503.2372542187893,-237.622228164483C587.1101299219208,-358.8376260347105,726.8163389583858,-620.6806940452182,862.2372542187893,-694.2923872213652C997.6581694791928,-767.9040803975122,1169.1751638541402,-730.867961888367,1315.7627457812105,-679.2923872213653C1462.3503277082807,-627.7168125543636,1662.7326214998284,-504.2210037562492,1741.7627457812105,-384.83893921935504C1820.7928700625926,-265.45687468246086,1789.9434914695025,-100.77964640645176,1789.9434914695025,36.9999999999999C1789.9434914695025,174.77964640645155,1826.003660896863,324.6235413491273,1741.7627457812105,441.83893921935487" fill="#ffcfb8"/></svg>