<svg width="720" height="720" viewBox="0 0 720 720" xmlns="http://www.w3.org/2000/svg"><path d="M434.7057276551951,28.999999999999854C432.14135291907087,130.88978104935632,377.5887141846495,270.7321664126352,339.09705444120453,361.6711513754839C300.60539469775955,452.61013633833255,284.8403110388873,536.9165957564043,203.75576919452513,574.6339097770921C122.67122735016298,612.3512237977799,-43.63673485608045,625.9389860626259,-147.4101966249684,587.975035499611C-251.18365839385632,550.011084936596,-352.2867008562973,435.012712315604,-418.8850014188025,346.8502063990022C-485.48330198130776,258.68770048240043,-543.0791341323056,163.4765266218622,-547,59.00000000000007C-550.9208658676944,-45.47652662186208,-502.67516385414046,-180.23663503598857,-442.41019662496853,-280.0089533321706C-382.1452293957966,-379.78127162835267,-295.8802621666247,-501.7381362334345,-185.41019662496853,-539.6339097770921C-74.9401310833124,-577.5296833207497,130.42794671114856,-555.7113237368558,220.41019662496834,-507.3835945941163C310.39244653878814,-459.0558654513768,318.767381019579,-339.064800686341,354.4833028579501,-249.667534920655C390.1992246963212,-160.27026915496896,437.27010239131937,-72.88978104935661,434.7057276551951,28.999999999999854C432.14135291907087,130.88978104935632,377.5887141846495,270.7321664126352,339.09705444120453,361.6711513754839" fill="#ffcfb8"/></svg>